<?xml version="1.0" encoding="UTF-8"?>
<svg id="Layer_2" data-name="Layer 2" xmlns="http://www.w3.org/2000/svg" xmlns:xlink="http://www.w3.org/1999/xlink" viewBox="0 0 69.79 107">
  <defs>
    <style>
      .cls-1 {
        fill: url(#linear-gradient);
      }

      .cls-1, .cls-2, .cls-3, .cls-4 {
        stroke-width: 0px;
      }

      .cls-2 {
        fill: url(#linear-gradient-4);
      }

      .cls-3 {
        fill: url(#linear-gradient-2);
      }

      .cls-4 {
        fill: url(#linear-gradient-3);
      }
    </style>
    <linearGradient id="linear-gradient" x1="34.3" y1="45.61" x2="34.3" y2="106.82" gradientUnits="userSpaceOnUse">
      <stop offset="0" stop-color="#ff8a52"/>
      <stop offset="1" stop-color="#bf403d"/>
    </linearGradient>
    <linearGradient id="linear-gradient-2" x1="28.39" y1="44.61" x2="28.39" y2="107" xlink:href="#linear-gradient"/>
    <linearGradient id="linear-gradient-3" x1="45.09" y1="0" x2="45.09" y2="100.3" xlink:href="#linear-gradient"/>
    <linearGradient id="linear-gradient-4" x1="51.13" y1=".01" x2="51.13" y2="87.38" xlink:href="#linear-gradient"/>
  </defs>
  <g id="Layer_1-2" data-name="Layer 1">
    <g>
      <path class="cls-1" d="m38.33,106.82c-.45,0-.88-.15-1.24-.43-16.07-12.63-25.29-31.58-25.29-52,0-2.35.12-4.7.37-6.99.11-1.01.96-1.79,1.98-1.8h0c1.02,0,1.89.8,2,1.81.41,3.53,3.42,6.21,7,6.21.73,0,1.45-.11,2.14-.33.57-.22,1.26-.18,1.79.14.52.31.93.83,1.01,1.44,0,0,.02.11.02.11,2.97,17.08,13.08,32.25,27.75,41.64.55.35.89.95.92,1.6.03.65-.27,1.28-.79,1.67-5.08,3.87-11.12,6.26-17.46,6.91-.07,0-.14.01-.21.01ZM15.81,54.83c.13,18.74,8.53,36.13,23.12,47.91,4.38-.57,8.58-2.08,12.31-4.41-13.75-9.7-23.35-24.34-26.71-40.78-.45.05-.91.08-1.37.08-2.81,0-5.39-1.05-7.35-2.8Z"/>
      <path class="cls-3" d="m34.89,107C15.65,107,0,91.35,0,72.11c0-10.53,4.68-20.39,12.85-27.05.59-.48,1.41-.59,2.1-.27,1.17.54,1.21,1.65,1.21,2.66.43,3.53,3.42,6.17,6.99,6.17.73,0,1.45-.11,2.14-.33.57-.22,1.26-.18,1.79.14.52.31.93.83,1.01,1.44,0,0,.02.11.02.11,2.97,17.08,13.08,32.25,27.75,41.64.55.35.89.95.92,1.6.03.65-.27,1.28-.79,1.67-5.08,3.87-11.12,6.26-17.46,6.91-1.19.13-2.41.19-3.64.19ZM12.82,50.49c-5.64,5.75-8.82,13.46-8.82,21.62,0,17.04,13.86,30.89,30.89,30.89,1.09,0,2.17-.06,3.22-.17,4.67-.48,9.16-2.03,13.12-4.5-13.75-9.7-23.35-24.34-26.71-40.78-.45.05-.91.08-1.37.08-4.7,0-8.75-2.93-10.34-7.14Z"/>
      <path class="cls-4" d="m54.79,100.3c-.37,0-.75-.1-1.08-.32-15.61-9.99-26.37-26.14-29.53-44.31-.02-.11-.04-.2-.05-.29-.62-3.6-.93-7.36-.93-11.12,0-1.23.04-2.49.1-3.75.05-.96.13-1.92.22-2.88,1.37-13.77,6.94-26.55,16.09-36.97.67-.76,1.79-.9,2.62-.34.83.56,1.24,1.74.79,2.64-4.35,8.67-6.56,18.02-6.56,27.8,0,2.74.18,5.49.54,8.17,1.03,7.84,3.51,15.3,7.38,22.18,5.17,9.21,12.66,17.01,21.66,22.55.85.52,1.18,1.6.78,2.51-2.38,5.39-6.12,10.13-10.83,13.7-.36.27-.78.41-1.21.41ZM34.23,15.5c-3.65,6.96-5.94,14.58-6.73,22.54-.09.9-.16,1.8-.21,2.7-.07,1.19-.1,2.37-.1,3.53,0,3.53.3,7.07.89,10.52l.03.16c2.9,16.65,12.54,31.45,26.57,40.89,3.21-2.68,5.86-5.99,7.75-9.71-8.9-5.82-16.32-13.76-21.53-23.03-4.12-7.33-6.76-15.28-7.86-23.62-.38-2.86-.57-5.78-.57-8.69,0-5.22.59-10.32,1.76-15.28Z"/>
      <path class="cls-2" d="m64.99,87.38c-.36,0-.71-.09-1.02-.27-9.61-5.92-17.57-14.22-23.07-24.01-4.12-7.33-6.76-15.28-7.86-23.62-.38-2.86-.57-5.78-.57-8.69,0-10.43,2.36-20.41,7.01-29.66.42-.83,1.38-1.28,2.28-1.06.93.23,1.58,1.1,1.54,2.05-.06,1.11-.09,2.24-.09,3.36,0,15.46,5.71,30.27,16.09,41.7.58.64,1.18,1.28,1.8,1.9.03.03.06.06.09.09,3.48,3.99,6.05,8.79,7.41,13.89.79,2.92,1.19,5.97,1.19,9.04,0,4.9-.99,9.63-2.95,14.07-.22.5-.66.91-1.18,1.09-.21.08-.44.11-.67.11Zm0-2h0,0ZM39.5,11.56c-2.01,6.17-3.03,12.6-3.03,19.22,0,2.74.18,5.49.54,8.17,1.03,7.84,3.51,15.3,7.38,22.18,4.78,8.51,11.54,15.82,19.65,21.26,1.17-3.32,1.75-6.75,1.75-10.28,0-2.72-.35-5.42-1.05-8.01-1.2-4.49-3.45-8.72-6.52-12.25-.64-.65-1.26-1.31-1.87-1.98-9.68-10.66-15.54-24.08-16.85-38.31Z"/>
    </g>
  </g>
</svg>